# xmcd CD database file
#
# Track frame offsets:
#	150
#	10612
#	28970
#	49560
#	65190
#	85152
#	97152
#	119625
#	142422
#	167265
#
# Disc length: 2698 seconds
#
# Revision: 0
# Processed by: cddbd v1.5.1PL0 Copyright (c) Steve Scherf et al.
# Submitted via: CDex 1.51
#
DISCID=8c0a880a
DTITLE=Revista Viva Melhor - Aromaterapia
DYEAR=1900
DGENRE=New Age
TTITLE0=Sonho
TTITLE1=Liberdade
TTITLE2=Cosmos
TTITLE3=Energia Interior
TTITLE4=Younger
TTITLE5=Reflexão
TTITLE6=Viagem
TTITLE7=Memórias
TTITLE8=Xanti
TTITLE9=Sea Song
EXTD=
EXTT0=
EXTT1=
EXTT2=
EXTT3=
EXTT4=
EXTT5=
EXTT6=
EXTT7=
EXTT8=
EXTT9=
PLAYORDER=
